<svg width="1920" height="1260" version="1.1" xmlns="http://www.w3.org/2000/svg" desc="Created with imagetracer.js version 1.2.6" ><path fill="rgb(0,0,0)" stroke="rgb(0,0,0)" stroke-width="1" opacity="0.7647058823529411" d="M 1224.5 604 L 1282 604.5 L 1224.5 605 L 1224.5 604 Z " /><path fill="rgb(0,0,0)" stroke="rgb(0,0,0)" stroke-width="1" opacity="0.7647058823529411" d="M 1205.5 605 L 1213 605.5 L 1205.5 606 L 1205.5 605 Z " /><path fill="rgb(0,0,0)" stroke="rgb(0,0,0)" stroke-width="1" opacity="0.7647058823529411" d="M 1303.5 605 L 1330 605.5 L 1303.5 606 L 1303.5 605 Z " /><path fill="rgb(0,0,0)" stroke="rgb(0,0,0)" stroke-width="1" opacity="0.7647058823529411" d="M 1194.5 606 L 1199 606.5 L 1194.5 607 L 1194.5 606 Z " /><path fill="rgb(0,0,0)" stroke="rgb(0,0,0)" stroke-width="1" opacity="0.7647058823529411" d="M 1370.5 606 L 1408 606.5 L 1370.5 607 L 1370.5 606 Z " /><path fill="rgb(0,0,0)" stroke="rgb(0,0,0)" stroke-width="1" opacity="0.7647058823529411" d="M 1185.5 607 L 1189 607.5 L 1185.5 608 L 1185.5 607 Z " /><path fill="rgb(0,0,0)" stroke="rgb(0,0,0)" stroke-width="1" opacity="0.7647058823529411" d="M 1442.5 607 L 1479 607.5 L 1442.5 608 L 1442.5 607 Z " /><path fill="rgb(0,0,0)" stroke="rgb(0,0,0)" stroke-width="1" opacity="0.7647058823529411" d="M 1178.5 608 L 1181 608.5 L 1178.5 609 L 1178.5 608 Z " /><path fill="rgb(0,0,0)" stroke="rgb(0,0,0)" stroke-width="1" opacity="0.7647058823529411" d="M 1490.5 608 L 1495 608.5 L 1490.5 609 L 1490.5 608 Z " /><path fill="rgb(0,0,0)" stroke="rgb(0,0,0)" stroke-width="1" opacity="0.7647058823529411" d="M 1170.5 609 L 1174 609.5 L 1170.5 610 L 1170.5 609 Z " /><path fill="rgb(0,0,0)" stroke="rgb(0,0,0)" stroke-width="1" opacity="0.7647058823529411" d="M 1503.5 609 L 1532 609.5 L 1503.5 610 L 1503.5 609 Z " /><path fill="rgb(0,0,0)" stroke="rgb(0,0,0)" stroke-width="1" opacity="0.7647058823529411" d="M 1161.5 610 L 1166 610.5 L 1161.5 611 L 1161.5 610 Z " /><path fill="rgb(0,0,0)" stroke="rgb(0,0,0)" stroke-width="1" opacity="0.7647058823529411" d="M 1561.5 610 L 1571 610.5 L 1561.5 611 L 1561.5 610 Z " /><path fill="rgb(0,0,0)" stroke="rgb(0,0,0)" stroke-width="1" opacity="0.7647058823529411" d="M 1143.5 611 L 1154 611.5 L 1143.5 612 L 1143.5 611 Z " /><path fill="rgb(0,0,0)" stroke="rgb(0,0,0)" stroke-width="1" opacity="0.7647058823529411" d="M 1577.5 611 L 1582 611.5 L 1577.5 612 L 1577.5 611 Z " /><path fill="rgb(0,0,0)" stroke="rgb(0,0,0)" stroke-width="1" opacity="0.7647058823529411" d="M 1082.5 612 L 1099 612.5 L 1082.5 613 L 1082.5 612 Z " /><path fill="rgb(0,0,0)" stroke="rgb(0,0,0)" stroke-width="1" opacity="0.7647058823529411" d="M 1585.5 612 L 1589 612.5 L 1585.5 613 L 1585.5 612 Z " /><path fill="rgb(0,0,0)" stroke="rgb(0,0,0)" stroke-width="1" opacity="0.7647058823529411" d="M 1068.5 613 L 1074 613.5 L 1068.5 614 L 1068.5 613 Z " /><path fill="rgb(0,0,0)" stroke="rgb(0,0,0)" stroke-width="1" opacity="0.7647058823529411" d="M 1591.5 613 L 1594 613.5 L 1591.5 614 L 1591.5 613 Z " /><path fill="rgb(0,0,0)" stroke="rgb(0,0,0)" stroke-width="1" opacity="0.7647058823529411" d="M 1060.5 614 L 1064 614.5 L 1060.5 615 L 1060.5 614 Z " /><path fill="rgb(0,0,0)" stroke="rgb(0,0,0)" stroke-width="1" opacity="0.7647058823529411" d="M 1054.5 615 L 1057 615.5 L 1054.5 616 L 1054.5 615 Z " /><path fill="rgb(0,0,0)" stroke="rgb(0,0,0)" stroke-width="1" opacity="0.7647058823529411" d="M 1049.5 616 L 1052 616.5 L 1049.5 617 L 1049.5 616 Z " /><path fill="rgb(0,0,0)" stroke="rgb(0,0,0)" stroke-width="1" opacity="0.7647058823529411" d="M 1038.5 619 L 1040 619.5 L 1038 620 L 1037.5 622 L 1037 620.5 L 1038.5 619 Z " /><path fill="rgb(0,0,0)" stroke="rgb(0,0,0)" stroke-width="1" opacity="0.7647058823529411" d="M 1608.5 619 L 1611.5 623 L 1608.5 619 Z " /><path fill="rgb(0,0,0)" stroke="rgb(0,0,0)" stroke-width="1" opacity="0.7647058823529411" d="M 1034.5 633 L 1035 636.5 L 1034 636.5 L 1034.5 633 Z " /><path fill="rgb(0,0,0)" stroke="rgb(0,0,0)" stroke-width="1" opacity="0.7647058823529411" d="M 1615.5 634 L 1616 649.5 L 1615 649.5 L 1615.5 634 Z " /><path fill="rgb(0,0,0)" stroke="rgb(0,0,0)" stroke-width="1" opacity="0.7647058823529411" d="M 1033.5 644 L 1034 669.5 L 1033 669.5 L 1033.5 644 Z " /><path fill="rgb(0,0,0)" stroke="rgb(0,0,0)" stroke-width="1" opacity="0.7647058823529411" d="M 1614.5 657 L 1615 662.5 L 1614 662.5 L 1614.5 657 Z " /><path fill="rgb(0,0,0)" stroke="rgb(0,0,0)" stroke-width="1" opacity="0.7647058823529411" d="M 1676.5 662 L 1682 662.5 L 1676.5 663 L 1676.5 662 Z " /><path fill="rgb(0,0,0)" stroke="rgb(0,0,0)" stroke-width="1" opacity="0.7647058823529411" d="M 1686.5 662 L 1691 662.5 L 1686.5 663 L 1686.5 662 Z " /><path fill="rgb(0,0,0)" stroke="rgb(0,0,0)" stroke-width="1" opacity="0.7647058823529411" d="M 1613.5 671 L 1614 674.5 L 1613 674.5 L 1613.5 671 Z " /><path fill="rgb(0,0,0)" stroke="rgb(0,0,0)" stroke-width="1" opacity="0.7647058823529411" d="M 1722.5 673 L 1723.5 675 L 1722.5 673 Z " /><path fill="rgb(0,0,0)" stroke="rgb(0,0,0)" stroke-width="1" opacity="0.7647058823529411" d="M 1731.5 679 L 1733.5 682 L 1731.5 679 Z " /><path fill="rgb(0,0,0)" stroke="rgb(0,0,0)" stroke-width="1" opacity="0.7647058823529411" d="M 1034.5 680 L 1035 687.5 L 1034 687.5 L 1034.5 680 Z " /><path fill="rgb(0,0,0)" stroke="rgb(0,0,0)" stroke-width="1" opacity="0.7647058823529411" d="M 1615.5 680 L 1623 680.5 L 1615.5 681 L 1615.5 680 Z " /><path fill="rgb(0,0,0)" stroke="rgb(0,0,0)" stroke-width="1" opacity="0.7647058823529411" d="M 1736.5 683 L 1742.5 690 L 1736.5 683 Z " /><path fill="rgb(0,0,0)" stroke="rgb(0,0,0)" stroke-width="1" opacity="0.7647058823529411" d="M 1682.5 692 L 1687 692.5 L 1682.5 693 L 1682.5 692 Z " /><path fill="rgb(0,0,0)" stroke="rgb(0,0,0)" stroke-width="1" opacity="0.7647058823529411" d="M 1744.5 692 L 1746.5 695 L 1744.5 692 Z " /><path fill="rgb(0,0,0)" stroke="rgb(0,0,0)" stroke-width="1" opacity="0.7647058823529411" d="M 1690.5 693 L 1693 693.5 L 1690.5 694 L 1690.5 693 Z " /><path fill="rgb(0,0,0)" stroke="rgb(0,0,0)" stroke-width="1" opacity="0.7647058823529411" d="M 1035.5 694 L 1036 699.5 L 1035 699.5 L 1035.5 694 Z " /><path fill="rgb(0,0,0)" stroke="rgb(0,0,0)" stroke-width="1" opacity="0.7647058823529411" d="M 1708.5 699 L 1709.5 701 L 1708.5 699 Z " /><path fill="rgb(0,0,0)" stroke="rgb(0,0,0)" stroke-width="1" opacity="0.7647058823529411" d="M 1714.5 703 L 1715.5 705 L 1714.5 703 Z " /><path fill="rgb(0,0,0)" stroke="rgb(0,0,0)" stroke-width="1" opacity="0.7647058823529411" d="M 1647.5 704 L 1646.5 706 L 1647.5 704 Z " /><path fill="rgb(0,0,0)" stroke="rgb(0,0,0)" stroke-width="1" opacity="0.7647058823529411" d="M 1752.5 704 L 1753.5 706 L 1752.5 704 Z " /><path fill="rgb(0,0,0)" stroke="rgb(0,0,0)" stroke-width="1" opacity="0.7647058823529411" d="M 1036.5 706 L 1037 710.5 L 1036 710.5 L 1036.5 706 Z " /><path fill="rgb(0,0,0)" stroke="rgb(0,0,0)" stroke-width="1" opacity="0.7647058823529411" d="M 1644.5 706 L 1638.5 713 L 1644.5 706 Z " /><path fill="rgb(0,0,0)" stroke="rgb(0,0,0)" stroke-width="1" opacity="0.7647058823529411" d="M 1718.5 706 L 1723.5 712 L 1718.5 706 Z " /><path fill="rgb(0,0,0)" stroke="rgb(0,0,0)" stroke-width="1" opacity="0.7647058823529411" d="M 1725.5 714 L 1726.5 716 L 1725.5 714 Z " /><path fill="rgb(0,0,0)" stroke="rgb(0,0,0)" stroke-width="1" opacity="0.7647058823529411" d="M 1037.5 716 L 1038 719.5 L 1037 719.5 L 1037.5 716 Z " /><path fill="rgb(0,0,0)" stroke="rgb(0,0,0)" stroke-width="1" opacity="0.7647058823529411" d="M 1729.5 720 L 1730.5 722 L 1729.5 720 Z " /><path fill="rgb(0,0,0)" stroke="rgb(0,0,0)" stroke-width="1" opacity="0.7647058823529411" d="M 1038.5 724 L 1039 728.5 L 1038 728.5 L 1038.5 724 Z " /><path fill="rgb(0,0,0)" stroke="rgb(0,0,0)" stroke-width="1" opacity="0.7647058823529411" d="M 1761.5 732 L 1762 736.5 L 1761 736.5 L 1761.5 732 Z " /><path fill="rgb(0,0,0)" stroke="rgb(0,0,0)" stroke-width="1" opacity="0.7647058823529411" d="M 1039.5 733 L 1040 736.5 L 1039 736.5 L 1039.5 733 Z " /><path fill="rgb(0,0,0)" stroke="rgb(0,0,0)" stroke-width="1" opacity="0.7647058823529411" d="M 1735.5 735 L 1736 737.5 L 1735 737.5 L 1735.5 735 Z " /><path fill="rgb(0,0,0)" stroke="rgb(0,0,0)" stroke-width="1" opacity="0.7647058823529411" d="M 1040.5 740 L 1041 743.5 L 1040 743.5 L 1040.5 740 Z " /><path fill="rgb(0,0,0)" stroke="rgb(0,0,0)" stroke-width="1" opacity="0.7647058823529411" d="M 1736.5 742 L 1737 749.5 L 1736 749.5 L 1736.5 742 Z " /><path fill="rgb(0,0,0)" stroke="rgb(0,0,0)" stroke-width="1" opacity="0.7647058823529411" d="M 1041.5 747 L 1042 750.5 L 1041 750.5 L 1041.5 747 Z " /><path fill="rgb(0,0,0)" stroke="rgb(0,0,0)" stroke-width="1" opacity="0.7647058823529411" d="M 1761.5 747 L 1762 752.5 L 1761 752.5 L 1761.5 747 Z " /><path fill="rgb(0,0,0)" stroke="rgb(0,0,0)" stroke-width="1" opacity="0.7647058823529411" d="M 1621.5 751 L 1618.5 755 L 1621.5 751 Z " /><path fill="rgb(0,0,0)" stroke="rgb(0,0,0)" stroke-width="1" opacity="0.7647058823529411" d="M 1042.5 754 L 1043 757.5 L 1042 757.5 L 1042.5 754 Z " /><path fill="rgb(0,0,0)" stroke="rgb(0,0,0)" stroke-width="1" opacity="0.7647058823529411" d="M 1735.5 754 L 1736 756.5 L 1735 756.5 L 1735.5 754 Z " /><path fill="rgb(0,0,0)" stroke="rgb(0,0,0)" stroke-width="1" opacity="0.7647058823529411" d="M 1616.5 755 L 1615.5 757 L 1616.5 755 Z " /><path fill="rgb(0,0,0)" stroke="rgb(0,0,0)" stroke-width="1" opacity="0.7647058823529411" d="M 1760.5 756 L 1761 758.5 L 1760 758.5 L 1760.5 756 Z " /><path fill="rgb(0,0,0)" stroke="rgb(0,0,0)" stroke-width="1" opacity="0.7647058823529411" d="M 1608.5 760 L 1606.5 763 L 1608.5 760 Z " /><path fill="rgb(0,0,0)" stroke="rgb(0,0,0)" stroke-width="1" opacity="0.7647058823529411" d="M 1043.5 761 L 1044 763.5 L 1043 763.5 L 1043.5 761 Z " /><path fill="rgb(0,0,0)" stroke="rgb(0,0,0)" stroke-width="1" opacity="0.7647058823529411" d="M 1044.5 767 L 1045 769.5 L 1044 769.5 L 1044.5 767 Z " /><path fill="rgb(0,0,0)" stroke="rgb(0,0,0)" stroke-width="1" opacity="0.7647058823529411" d="M 1045.5 773 L 1046 775.5 L 1045 775.5 L 1045.5 773 Z " /><path fill="rgb(0,0,0)" stroke="rgb(0,0,0)" stroke-width="1" opacity="0.7647058823529411" d="M 1728.5 774 L 1727.5 776 L 1728.5 774 Z " /><path fill="rgb(0,0,0)" stroke="rgb(0,0,0)" stroke-width="1" opacity="0.7647058823529411" d="M 1724.5 780 L 1719.5 786 L 1724.5 780 Z " /><path fill="rgb(0,0,0)" stroke="rgb(0,0,0)" stroke-width="1" opacity="0.7647058823529411" d="M 1716.5 787 L 1715.5 789 L 1716.5 787 Z " /><path fill="rgb(0,0,0)" stroke="rgb(0,0,0)" stroke-width="1" opacity="0.7647058823529411" d="M 448.5 788 L 451 788.5 L 448.5 789 L 448.5 788 Z " /><path fill="rgb(0,0,0)" stroke="rgb(0,0,0)" stroke-width="1" opacity="0.7647058823529411" d="M 454.5 789 L 457 789.5 L 454.5 790 L 454.5 789 Z " /><path fill="rgb(0,0,0)" stroke="rgb(0,0,0)" stroke-width="1" opacity="0.7647058823529411" d="M 1713.5 789 L 1712.5 791 L 1713.5 789 Z " /><path fill="rgb(0,0,0)" stroke="rgb(0,0,0)" stroke-width="1" opacity="0.7647058823529411" d="M 261.5 790 L 265 790.5 L 261.5 791 L 261.5 790 Z " /><path fill="rgb(0,0,0)" stroke="rgb(0,0,0)" stroke-width="1" opacity="0.7647058823529411" d="M 460.5 790 L 463 790.5 L 460.5 791 L 460.5 790 Z " /><path fill="rgb(0,0,0)" stroke="rgb(0,0,0)" stroke-width="1" opacity="0.7647058823529411" d="M 255.5 791 L 258 791.5 L 255.5 792 L 255.5 791 Z " /><path fill="rgb(0,0,0)" stroke="rgb(0,0,0)" stroke-width="1" opacity="0.7647058823529411" d="M 342.5 791 L 341.5 793 L 342.5 791 Z " /><path fill="rgb(0,0,0)" stroke="rgb(0,0,0)" stroke-width="1" opacity="0.7647058823529411" d="M 466.5 791 L 469 791.5 L 466.5 792 L 466.5 791 Z " /><path fill="rgb(0,0,0)" stroke="rgb(0,0,0)" stroke-width="1" opacity="0.7647058823529411" d="M 1748.5 791 L 1747.5 793 L 1748.5 791 Z " /><path fill="rgb(0,0,0)" stroke="rgb(0,0,0)" stroke-width="1" opacity="0.7647058823529411" d="M 248.5 792 L 251 792.5 L 248.5 793 L 248.5 792 Z " /><path fill="rgb(0,0,0)" stroke="rgb(0,0,0)" stroke-width="1" opacity="0.7647058823529411" d="M 272.5 792 L 274.5 795 L 272.5 792 Z " /><path fill="rgb(0,0,0)" stroke="rgb(0,0,0)" stroke-width="1" opacity="0.7647058823529411" d="M 472.5 792 L 475 792.5 L 472.5 793 L 472.5 792 Z " /><path fill="rgb(0,0,0)" stroke="rgb(0,0,0)" stroke-width="1" opacity="0.7647058823529411" d="M 241.5 793 L 245 793.5 L 241.5 794 L 241.5 793 Z " /><path fill="rgb(0,0,0)" stroke="rgb(0,0,0)" stroke-width="1" opacity="0.7647058823529411" d="M 478.5 793 L 481 793.5 L 478.5 794 L 478.5 793 Z " /><path fill="rgb(0,0,0)" stroke="rgb(0,0,0)" stroke-width="1" opacity="0.7647058823529411" d="M 919.5 793 L 922 793.5 L 919.5 794 L 919.5 793 Z " /><path fill="rgb(0,0,0)" stroke="rgb(0,0,0)" stroke-width="1" opacity="0.7647058823529411" d="M 64.5 794 L 68 794.5 L 64.5 795 L 64.5 794 Z " /><path fill="rgb(0,0,0)" stroke="rgb(0,0,0)" stroke-width="1" opacity="0.7647058823529411" d="M 73.5 794 L 76 794.5 L 73.5 795 L 73.5 794 Z " /><path fill="rgb(0,0,0)" stroke="rgb(0,0,0)" stroke-width="1" opacity="0.7647058823529411" d="M 235.5 794 L 238 794.5 L 235.5 795 L 235.5 794 Z " /><path fill="rgb(0,0,0)" stroke="rgb(0,0,0)" stroke-width="1" opacity="0.7647058823529411" d="M 484.5 794 L 487 794.5 L 484.5 795 L 484.5 794 Z " /><path fill="rgb(0,0,0)" stroke="rgb(0,0,0)" stroke-width="1" opacity="0.7647058823529411" d="M 726.5 794 L 755 794.5 L 726.5 795 L 726.5 794 Z " /><path fill="rgb(0,0,0)" stroke="rgb(0,0,0)" stroke-width="1" opacity="0.7647058823529411" d="M 905.5 794 L 909 794.5 L 905.5 795 L 905.5 794 Z " /><path fill="rgb(0,0,0)" stroke="rgb(0,0,0)" stroke-width="1" opacity="0.7647058823529411" d="M 932.5 794 L 938 794.5 L 932.5 795 L 932.5 794 Z " /><path fill="rgb(0,0,0)" stroke="rgb(0,0,0)" stroke-width="1" opacity="0.7647058823529411" d="M 1770.5 794 L 1785 794.5 L 1770.5 795 L 1770.5 794 Z " /><path fill="rgb(0,0,0)" stroke="rgb(0,0,0)" stroke-width="1" opacity="0.7647058823529411" d="M 1817.5 794 L 1838 794.5 L 1817.5 795 L 1817.5 794 Z " /><path fill="rgb(0,0,0)" stroke="rgb(0,0,0)" stroke-width="1" opacity="0.7647058823529411" d="M 56.5 795 L 60 795.5 L 56.5 796 L 56.5 795 Z " /><path fill="rgb(0,0,0)" stroke="rgb(0,0,0)" stroke-width="1" opacity="0.7647058823529411" d="M 79.5 795 L 83 795.5 L 79.5 796 L 79.5 795 Z " /><path fill="rgb(0,0,0)" stroke="rgb(0,0,0)" stroke-width="1" opacity="0.7647058823529411" d="M 228.5 795 L 232 795.5 L 228.5 796 L 228.5 795 Z " /><path fill="rgb(0,0,0)" stroke="rgb(0,0,0)" stroke-width="1" opacity="0.7647058823529411" d="M 333.5 795 L 336 795.5 L 333.5 796 L 333.5 795 Z " /><path fill="rgb(0,0,0)" stroke="rgb(0,0,0)" stroke-width="1" opacity="0.7647058823529411" d="M 490.5 795 L 493 795.5 L 490.5 796 L 490.5 795 Z " /><path fill="rgb(0,0,0)" stroke="rgb(0,0,0)" stroke-width="1" opacity="0.7647058823529411" d="M 703.5 795 L 702.5 797 L 703.5 795 Z " /><path fill="rgb(0,0,0)" stroke="rgb(0,0,0)" stroke-width="1" opacity="0.7647058823529411" d="M 942.5 795 L 945 795.5 L 942.5 796 L 942.5 795 Z " /><path fill="rgb(0,0,0)" stroke="rgb(0,0,0)" stroke-width="1" opacity="0.7647058823529411" d="M 1756.5 795 L 1762 795.5 L 1756.5 796 L 1756.5 795 Z " /><path fill="rgb(0,0,0)" stroke="rgb(0,0,0)" stroke-width="1" opacity="0.7647058823529411" d="M 1854.5 795 L 1871 795.5 L 1854.5 796 L 1854.5 795 Z " /><path fill="rgb(0,0,0)" stroke="rgb(0,0,0)" stroke-width="1" opacity="0.7647058823529411" d="M 48.5 796 L 52 796.5 L 48.5 797 L 48.5 796 Z " /><path fill="rgb(0,0,0)" stroke="rgb(0,0,0)" stroke-width="1" opacity="0.7647058823529411" d="M 87.5 796 L 91 796.5 L 87.5 797 L 87.5 796 Z " /><path fill="rgb(0,0,0)" stroke="rgb(0,0,0)" stroke-width="1" opacity="0.7647058823529411" d="M 170.5 796 L 174 796.5 L 170.5 797 L 170.5 796 Z " /><path fill="rgb(0,0,0)" stroke="rgb(0,0,0)" stroke-width="1" opacity="0.7647058823529411" d="M 179.5 796 L 182 796.5 L 179.5 797 L 179.5 796 Z " /><path fill="rgb(0,0,0)" stroke="rgb(0,0,0)" stroke-width="1" opacity="0.7647058823529411" d="M 222.5 796 L 225 796.5 L 222.5 797 L 222.5 796 Z " /><path fill="rgb(0,0,0)" stroke="rgb(0,0,0)" stroke-width="1" opacity="0.7647058823529411" d="M 285.5 796 L 303 796.5 L 285.5 797 L 285.5 796 Z " /><path fill="rgb(0,0,0)" stroke="rgb(0,0,0)" stroke-width="1" opacity="0.7647058823529411" d="M 324.5 796 L 330 796.5 L 324.5 797 L 324.5 796 Z " /><path fill="rgb(0,0,0)" stroke="rgb(0,0,0)" stroke-width="1" opacity="0.7647058823529411" d="M 496.5 796 L 499 796.5 L 496.5 797 L 496.5 796 Z " /><path fill="rgb(0,0,0)" stroke="rgb(0,0,0)" stroke-width="1" opacity="0.7647058823529411" d="M 575.5 796 L 581 796.5 L 575.5 797 L 575.5 796 Z " /><path fill="rgb(0,0,0)" stroke="rgb(0,0,0)" stroke-width="1" opacity="0.7647058823529411" d="M 763.5 796 L 765.5 799 L 763.5 796 Z " /><path fill="rgb(0,0,0)" stroke="rgb(0,0,0)" stroke-width="1" opacity="0.7647058823529411" d="M 893.5 796 L 896 796.5 L 893.5 797 L 893.5 796 Z " /><path fill="rgb(0,0,0)" stroke="rgb(0,0,0)" stroke-width="1" opacity="0.7647058823529411" d="M 948.5 796 L 951 796.5 L 948.5 797 L 948.5 796 Z " /><path fill="rgb(0,0,0)" stroke="rgb(0,0,0)" stroke-width="1" opacity="0.7647058823529411" d="M 1745.5 796 L 1750 796.5 L 1745.5 797 L 1745.5 796 Z " /><path fill="rgb(0,0,0)" stroke="rgb(0,0,0)" stroke-width="1" opacity="0.7647058823529411" d="M 1886.5 796 L 1909 796.5 L 1886.5 797 L 1886.5 796 Z " /><path fill="rgb(0,0,0)" stroke="rgb(0,0,0)" stroke-width="1" opacity="0.7647058823529411" d="M 40.5 797 L 44 797.5 L 40.5 798 L 40.5 797 Z " /><path fill="rgb(0,0,0)" stroke="rgb(0,0,0)" stroke-width="1" opacity="0.7647058823529411" d="M 96.5 797 L 101 797.5 L 96.5 798 L 96.5 797 Z " /><path fill="rgb(0,0,0)" stroke="rgb(0,0,0)" stroke-width="1" opacity="0.7647058823529411" d="M 160.5 797 L 165 797.5 L 160.5 798 L 160.5 797 Z " /><path fill="rgb(0,0,0)" stroke="rgb(0,0,0)" stroke-width="1" opacity="0.7647058823529411" d="M 185.5 797 L 188 797.5 L 185.5 798 L 185.5 797 Z " /><path fill="rgb(0,0,0)" stroke="rgb(0,0,0)" stroke-width="1" opacity="0.7647058823529411" d="M 215.5 797 L 218 797.5 L 215.5 798 L 215.5 797 Z " /><path fill="rgb(0,0,0)" stroke="rgb(0,0,0)" stroke-width="1" opacity="0.7647058823529411" d="M 502.5 797 L 505 797.5 L 502.5 798 L 502.5 797 Z " /><path fill="rgb(0,0,0)" stroke="rgb(0,0,0)" stroke-width="1" opacity="0.7647058823529411" d="M 545.5 797 L 561 797.5 L 545.5 798 L 545.5 797 Z " /><path fill="rgb(0,0,0)" stroke="rgb(0,0,0)" stroke-width="1" opacity="0.7647058823529411" d="M 589.5 797 L 595 797.5 L 589.5 798 L 589.5 797 Z " /><path fill="rgb(0,0,0)" stroke="rgb(0,0,0)" stroke-width="1" opacity="0.7647058823529411" d="M 888.5 797 L 891 797.5 L 888.5 798 L 888.5 797 Z " /><path fill="rgb(0,0,0)" stroke="rgb(0,0,0)" stroke-width="1" opacity="0.7647058823529411" d="M 32.5 798 L 36 798.5 L 32.5 799 L 32.5 798 Z " /><path fill="rgb(0,0,0)" stroke="rgb(0,0,0)" stroke-width="1" opacity="0.7647058823529411" d="M 108.5 798 L 119 798.5 L 108.5 799 L 108.5 798 Z " /><path fill="rgb(0,0,0)" stroke="rgb(0,0,0)" stroke-width="1" opacity="0.7647058823529411" d="M 143.5 798 L 153 798.5 L 143.5 799 L 143.5 798 Z " /><path fill="rgb(0,0,0)" stroke="rgb(0,0,0)" stroke-width="1" opacity="0.7647058823529411" d="M 191.5 798 L 194 798.5 L 191.5 799 L 191.5 798 Z " /><path fill="rgb(0,0,0)" stroke="rgb(0,0,0)" stroke-width="1" opacity="0.7647058823529411" d="M 208.5 798 L 212 798.5 L 208.5 799 L 208.5 798 Z " /><path fill="rgb(0,0,0)" stroke="rgb(0,0,0)" stroke-width="1" opacity="0.7647058823529411" d="M 508.5 798 L 511 798.5 L 508.5 799 L 508.5 798 Z " /><path fill="rgb(0,0,0)" stroke="rgb(0,0,0)" stroke-width="1" opacity="0.7647058823529411" d="M 515.5 798 L 531 798.5 L 515.5 799 L 515.5 798 Z " /><path fill="rgb(0,0,0)" stroke="rgb(0,0,0)" stroke-width="1" opacity="0.7647058823529411" d="M 599.5 798 L 603 798.5 L 599.5 799 L 599.5 798 Z " /><path fill="rgb(0,0,0)" stroke="rgb(0,0,0)" stroke-width="1" opacity="0.7647058823529411" d="M 699.5 798 L 698.5 800 L 699.5 798 Z " /><path fill="rgb(0,0,0)" stroke="rgb(0,0,0)" stroke-width="1" opacity="0.7647058823529411" d="M 883.5 798 L 886 798.5 L 883.5 799 L 883.5 798 Z " /><path fill="rgb(0,0,0)" stroke="rgb(0,0,0)" stroke-width="1" opacity="0.7647058823529411" d="M 1597.5 798 L 1600 798.5 L 1597 800.5 L 1597.5 798 Z " /><path fill="rgb(0,0,0)" stroke="rgb(0,0,0)" stroke-width="1" opacity="0.7647058823529411" d="M 1613.5 798 L 1616 798.5 L 1613.5 799 L 1613.5 798 Z " /><path fill="rgb(0,0,0)" stroke="rgb(0,0,0)" stroke-width="1" opacity="0.7647058823529411" d="M 25.5 799 L 29 799.5 L 25.5 800 L 25.5 799 Z " /><path fill="rgb(0,0,0)" stroke="rgb(0,0,0)" stroke-width="1" opacity="0.7647058823529411" d="M 197.5 799 L 200 799.5 L 197.5 800 L 197.5 799 Z " /><path fill="rgb(0,0,0)" stroke="rgb(0,0,0)" stroke-width="1" opacity="0.7647058823529411" d="M 202.5 799 L 205 799.5 L 202.5 800 L 202.5 799 Z " /><path fill="rgb(0,0,0)" stroke="rgb(0,0,0)" stroke-width="1" opacity="0.7647058823529411" d="M 606.5 799 L 610 799.5 L 606.5 800 L 606.5 799 Z " /><path fill="rgb(0,0,0)" stroke="rgb(0,0,0)" stroke-width="1" opacity="0.7647058823529411" d="M 877.5 799 L 880 799.5 L 877.5 800 L 877.5 799 Z " /><path fill="rgb(0,0,0)" stroke="rgb(0,0,0)" stroke-width="1" opacity="0.7647058823529411" d="M 963.5 799 L 966 799.5 L 963.5 800 L 963.5 799 Z " /><path fill="rgb(0,0,0)" stroke="rgb(0,0,0)" stroke-width="1" opacity="0.7647058823529411" d="M 1619.5 799 L 1622 799.5 L 1619.5 800 L 1619.5 799 Z " /><path fill="rgb(0,0,0)" stroke="rgb(0,0,0)" stroke-width="1" opacity="0.7647058823529411" d="M 1686.5 799 L 1689 799.5 L 1686.5 800 L 1686.5 799 Z " /><path fill="rgb(0,0,0)" stroke="rgb(0,0,0)" stroke-width="1" opacity="0.7647058823529411" d="M 17.5 800 L 21 800.5 L 17.5 801 L 17.5 800 Z " /><path fill="rgb(0,0,0)" stroke="rgb(0,0,0)" stroke-width="1" opacity="0.7647058823529411" d="M 362.5 800 L 367 800.5 L 362.5 801 L 362.5 800 Z " /><path fill="rgb(0,0,0)" stroke="rgb(0,0,0)" stroke-width="1" opacity="0.7647058823529411" d="M 613.5 800 L 616 800.5 L 613.5 801 L 613.5 800 Z " /><path fill="rgb(0,0,0)" stroke="rgb(0,0,0)" stroke-width="1" opacity="0.7647058823529411" d="M 652.5 800 L 655 800.5 L 652.5 801 L 652.5 800 Z " /><path fill="rgb(0,0,0)" stroke="rgb(0,0,0)" stroke-width="1" opacity="0.7647058823529411" d="M 664.5 800 L 674 800.5 L 664.5 801 L 664.5 800 Z " /><path fill="rgb(0,0,0)" stroke="rgb(0,0,0)" stroke-width="1" opacity="0.7647058823529411" d="M 696.5 800 L 695.5 802 L 696.5 800 Z " /><path fill="rgb(0,0,0)" stroke="rgb(0,0,0)" stroke-width="1" opacity="0.7647058823529411" d="M 768.5 800 L 769.5 802 L 768.5 800 Z " /><path fill="rgb(0,0,0)" stroke="rgb(0,0,0)" stroke-width="1" opacity="0.7647058823529411" d="M 871.5 800 L 874 800.5 L 871.5 801 L 871.5 800 Z " /><path fill="rgb(0,0,0)" stroke="rgb(0,0,0)" stroke-width="1" opacity="0.7647058823529411" d="M 1625.5 800 L 1628 800.5 L 1625.5 801 L 1625.5 800 Z " /><path fill="rgb(0,0,0)" stroke="rgb(0,0,0)" stroke-width="1" opacity="0.7647058823529411" d="M 1680.5 800 L 1683 800.5 L 1680.5 801 L 1680.5 800 Z " /><path fill="rgb(0,0,0)" stroke="rgb(0,0,0)" stroke-width="1" opacity="0.7647058823529411" d="M 9.5 801 L 13 801.5 L 9.5 802 L 9.5 801 Z " /><path fill="rgb(0,0,0)" stroke="rgb(0,0,0)" stroke-width="1" opacity="0.7647058823529411" d="M 405.5 801 L 409 801.5 L 405.5 802 L 405.5 801 Z " /><path fill="rgb(0,0,0)" stroke="rgb(0,0,0)" stroke-width="1" opacity="0.7647058823529411" d="M 619.5 801 L 622 801.5 L 619.5 802 L 619.5 801 Z " /><path fill="rgb(0,0,0)" stroke="rgb(0,0,0)" stroke-width="1" opacity="0.7647058823529411" d="M 647.5 801 L 650 801.5 L 647.5 802 L 647.5 801 Z " /><path fill="rgb(0,0,0)" stroke="rgb(0,0,0)" stroke-width="1" opacity="0.7647058823529411" d="M 683.5 801 L 693 801.5 L 683.5 802 L 683.5 801 Z " /><path fill="rgb(0,0,0)" stroke="rgb(0,0,0)" stroke-width="1" opacity="0.7647058823529411" d="M 864.5 801 L 868 801.5 L 864.5 802 L 864.5 801 Z " /><path fill="rgb(0,0,0)" stroke="rgb(0,0,0)" stroke-width="1" opacity="0.7647058823529411" d="M 1633.5 801 L 1638 801.5 L 1633.5 802 L 1633.5 801 Z " /><path fill="rgb(0,0,0)" stroke="rgb(0,0,0)" stroke-width="1" opacity="0.7647058823529411" d="M 1672.5 801 L 1677 801.5 L 1672.5 802 L 1672.5 801 Z " /><path fill="rgb(0,0,0)" stroke="rgb(0,0,0)" stroke-width="1" opacity="0.7647058823529411" d="M 1.5 802 L 5 802.5 L 1.5 803 L 1.5 802 Z " /><path fill="rgb(0,0,0)" stroke="rgb(0,0,0)" stroke-width="1" opacity="0.7647058823529411" d="M 625.5 802 L 628 802.5 L 625.5 803 L 625.5 802 Z " /><path fill="rgb(0,0,0)" stroke="rgb(0,0,0)" stroke-width="1" opacity="0.7647058823529411" d="M 642.5 802 L 645 802.5 L 642.5 803 L 642.5 802 Z " /><path fill="rgb(0,0,0)" stroke="rgb(0,0,0)" stroke-width="1" opacity="0.7647058823529411" d="M 856.5 802 L 860 802.5 L 856.5 803 L 856.5 802 Z " /><path fill="rgb(0,0,0)" stroke="rgb(0,0,0)" stroke-width="1" opacity="0.7647058823529411" d="M 1646.5 802 L 1665 802.5 L 1646.5 803 L 1646.5 802 Z " /><path fill="rgb(0,0,0)" stroke="rgb(0,0,0)" stroke-width="1" opacity="0.7647058823529411" d="M 632.5 803 L 635 803.5 L 632.5 804 L 632.5 803 Z " /><path fill="rgb(0,0,0)" stroke="rgb(0,0,0)" stroke-width="1" opacity="0.7647058823529411" d="M 772.5 803 L 773.5 805 L 772.5 803 Z " /><path fill="rgb(0,0,0)" stroke="rgb(0,0,0)" stroke-width="1" opacity="0.7647058823529411" d="M 845.5 803 L 850 803.5 L 845.5 804 L 845.5 803 Z " /><path fill="rgb(0,0,0)" stroke="rgb(0,0,0)" stroke-width="1" opacity="0.7647058823529411" d="M 1034.5 803 L 1044 803.5 L 1034.5 804 L 1034.5 803 Z " /><path fill="rgb(0,0,0)" stroke="rgb(0,0,0)" stroke-width="1" opacity="0.7647058823529411" d="M 824.5 804 L 837 804.5 L 824.5 805 L 824.5 804 Z " /><path fill="rgb(0,0,0)" stroke="rgb(0,0,0)" stroke-width="1" opacity="0.7647058823529411" d="M 1014.5 804 L 1024 804.5 L 1014.5 805 L 1014.5 804 Z " /><path fill="rgb(0,0,0)" stroke="rgb(0,0,0)" stroke-width="1" opacity="0.7647058823529411" d="M 993.5 805 L 1004 805.5 L 993.5 806 L 993.5 805 Z " /><path fill="rgb(0,0,0)" stroke="rgb(0,0,0)" stroke-width="1" opacity="1" d="M 0 0 L 1920 0 L 1920 797 L 1909.5 797 L 1908.5 796 L 1838.5 795 L 1837.5 794 L 1770.5 794 L 1769.5 795 L 1746.5 796 L 1747 794.5 Q 1755.7 781.2 1760 763.5 L 1762 752.5 L 1762 732.5 L 1760 721.5 L 1754 705.5 Q 1747 692.5 1736.5 683 Q 1725.2 672.8 1709.5 667 L 1690.5 662 L 1676.5 662 L 1657.5 667 L 1625.5 680 L 1614 680 L 1614 663.5 L 1615 662.5 L 1615 650.5 L 1616 649.5 L 1616 634.5 Q 1613.8 633.3 1615 628.5 L 1608.5 619 L 1593.5 613 L 1582.5 612 L 1581.5 611 L 1571.5 611 L 1570.5 610 L 1495.5 609 L 1494.5 608 L 1479.5 608 L 1478.5 607 L 1408.5 607 L 1407.5 606 L 1330.5 606 L 1329.5 605 L 1282.5 605 L 1281.5 604 L 1224.5 604 L 1223.5 605 L 1194.5 606 L 1193.5 607 L 1185.5 607 L 1184.5 608 L 1161.5 610 L 1160.5 611 L 1068.5 613 L 1067.5 614 L 1049.5 616 L 1037 620.5 L 1035 627.5 L 1034 643.5 L 1033 644.5 L 1033 669.5 L 1034 670.5 L 1034 687.5 L 1035 688.5 L 1035 699.5 L 1036 700.5 L 1036 710.5 L 1037 711.5 L 1039 736.5 L 1040 737.5 L 1045 775.5 L 1051 803 L 1014.5 804 L 1013.5 805 L 993.5 805 L 990.5 806 L 950.5 796 L 919.5 793 L 918.5 794 L 905.5 794 L 870.5 801 L 856.5 802 L 855.5 803 L 845.5 803 L 844.5 804 L 774.5 805 L 761.5 795 Q 756 796.5 754.5 794 L 705.5 794 L 693.5 802 L 692.5 801 L 674.5 801 L 673.5 800 L 652.5 800 L 635.5 804 L 602.5 798 L 575.5 796 L 574.5 797 L 545.5 797 L 544.5 798 L 515.5 798 L 511.5 799 L 450.5 788 L 444.5 788 L 409.5 801 L 403.5 801 L 388.5 796 L 378.5 796 L 368.5 800 L 359.5 800 L 346.5 792 L 342.5 791 L 332.5 796 L 303.5 797 L 302.5 796 L 285.5 796 L 280.5 797 Q 273.5 795 269.5 790 L 261.5 790 L 254.5 792 L 241.5 793 L 240.5 794 L 200.5 800 L 181.5 796 L 170.5 796 L 159.5 798 L 119.5 799 L 118.5 798 L 91.5 797 L 75.5 794 L 64.5 794 L 63.5 795 L 32.5 798 L 24.5 800 L 1.5 802 L 0.5 803 L 0 0 Z " /><path fill="rgb(0,0,0)" stroke="rgb(0,0,0)" stroke-width="1" opacity="1" d="M 1676.5 692 Q 1710.3 693.3 1725 713.5 Q 1732 721.5 1735 733.5 L 1736 738.5 L 1736 753.5 Q 1732 775.5 1717.5 787 Q 1704.6 796.6 1685.5 800 L 1672.5 801 L 1671.5 802 L 1638.5 802 L 1637.5 801 L 1628.5 801 L 1602.5 796 L 1598.5 799 L 1598 796.5 L 1606 763.5 L 1610.5 759 Q 1617.9 756.9 1622 751.5 L 1638 713.5 L 1645.5 706 L 1658.5 699 L 1676.5 692 Z " /><path fill="rgb(0,0,0)" stroke="rgb(0,0,0)" stroke-width="1" opacity="0" d="M 1213.5 605 L 1302.5 605 L 1303.5 606 L 1369.5 606 L 1370.5 607 L 1441.5 607 L 1442.5 608 L 1489.5 608 L 1490.5 609 L 1502.5 609 L 1503.5 610 L 1560.5 610 L 1561.5 611 L 1576.5 611 L 1577.5 612 L 1595.5 614 L 1607.5 619 L 1612 623.5 L 1615 630.5 L 1615 656.5 L 1614 657.5 Q 1615.3 667.8 1613 674.5 L 1615.5 681 L 1627.5 680 L 1665.5 665 L 1685.5 662 L 1701.5 665 L 1721.5 673 Q 1734.6 680.4 1744 691.5 Q 1754.1 702.9 1759 719.5 L 1761 728.5 L 1762 746.5 L 1761 747.5 L 1760 761.5 L 1757 772.5 L 1745 796.5 L 1749.5 797 L 1750.5 796 L 1761.5 796 L 1762.5 795 L 1816.5 794 L 1817.5 795 L 1853.5 795 L 1854.5 796 L 1920 797 L 1920 1259.5 L 1919.5 1260 L 0 1260 L 0 803.5 Q 0 802.5 4.5 803 L 5.5 802 L 12.5 802 L 13.5 801 L 20.5 801 L 21.5 800 L 28.5 800 L 36.5 798 L 72.5 794 L 79.5 796 L 95.5 797 L 96.5 798 L 107.5 798 L 108.5 799 L 152.5 799 L 153.5 798 L 164.5 798 L 165.5 797 L 178.5 796 L 197.5 800 L 204.5 800 L 205.5 799 L 211.5 799 L 218.5 797 L 224.5 797 L 225.5 796 L 231.5 796 L 238.5 794 L 268.5 790 L 278.5 797 L 329.5 797 Q 330.8 794.7 335.5 796 L 344.5 791 L 357.5 800 L 366.5 801 L 376.5 797 L 386.5 796 L 401.5 801 L 408.5 802 L 447.5 788 L 508.5 799 L 530.5 799 L 531.5 798 L 588.5 797 L 589.5 798 L 598.5 798 L 625.5 803 L 638.5 804 L 655.5 800 L 663.5 800 L 664.5 801 L 695.5 802 L 705.5 794 L 725.5 794 L 726.5 795 L 760.5 795 L 773.5 805 L 836.5 805 L 837.5 804 L 849.5 804 L 850.5 803 L 867.5 802 L 909.5 794 L 931.5 794 L 932.5 795 L 941.5 795 L 958.5 798 L 988.5 806 L 1003.5 806 L 1004.5 805 L 1023.5 805 L 1024.5 804 L 1043.5 804 L 1044.5 803 L 1052 803 L 1046 778.5 L 1040 733.5 L 1039 732.5 L 1038 716.5 L 1037 715.5 L 1035 680.5 L 1034 679.5 L 1034 637.5 Q 1036.8 635.8 1035 629.5 L 1038 620 L 1057.5 615 L 1073.5 614 L 1074.5 613 L 1153.5 612 L 1154.5 611 L 1165.5 611 L 1181.5 608 L 1198.5 607 L 1199.5 606 L 1212.5 606 L 1213.5 605 Z M 1675 692 L 1645 706 L 1638 713 L 1622 751 Q 1617 757 1609 760 L 1605 766 L 1602 782 L 1597 799 L 1598 801 L 1604 796 L 1626 801 L 1646 802 L 1647 803 L 1665 803 L 1666 802 L 1677 802 L 1684 800 L 1689 800 L 1705 795 L 1720 786 Q 1728 779 1733 767 L 1737 750 Q 1737 724 1724 712 Q 1716 703 1705 697 L 1687 692 L 1675 692 Z " /></svg>